{"title":"Shelter.LIMITED.2010.480p.BRRip.XviD.AC3-LEGi0N","uid":5744119,"size":1666451416,"categoryP":"video","categoryS":"movies","magnet":"?xt=urn:btih:3585d4f211fdcf3be85ecdb16ec580e2a25bc395&amp;dn=Shelter.LIMITED.2010.480p.BRRip.XviD.AC3-LEGi0N&amp;tr=udp%3A%2F%2Ftracker.openbittorrent.com%3A80&amp;tr=udp%3A%2F%2Fopen.demonii.com%3A1337&amp;tr=udp%3A%2F%2Ftracker.coppersurfer.tk%3A6969&amp;tr=udp%3A%2F%2Fexodus.desync.com%3A6969","seeders":0,"leechers":1,"uploader":"TvTeam","files":5,"time":1281135888,"description":". \n  &lt;a href=&quot;\nhttp://www.torrentday.com/&quot; rel=&quot;nofollow&quot; target=&quot;_NEW&quot;&gt;\nhttp://www.torrentday.com/&lt;/a&gt;        :     The Hottest Private Tracker On The Net!!!\n\n\n               www . TorrentDay . Com \n(((((((((((((= Enjoy No RAR releases =))))))))))))))))))))\n\n\n...................................NFO:....................................\n\n.[img]http://leetleech.org/images/98081979113376782688.jpg[/img]\n\n[b]Shelter LIMITED 2010 480p BRRip XviD AC3-LEGi0N\n\n[img]http://leetleech.org/images/48874973695367351744.png[/img]\n[color=red]General[/color]\nFormat: AVI\nFile size: 1.54 GiB\nDuration: 1h 52mn\nOverall bit rate: 1 958 Kbps\nIMDb Rating: 6.2/10   242 votes\nGenre: Horror | Thriller \nRelease Date: 2010 (USA)\nIMDb Link: http://www.imdb.com/title/tt1179069/\nSource: 720p Bluray x264-ALLiANCE\n\n[color=red]Video[/color]\nFormat: MPEG-4 Visual\nFormat profile: Streaming Video@L1\nFormat settings, BVOP: Yes\nFormat settings, QPel: No\nFormat settings, GMC: No warppoints\nFormat settings, Matrix: Default (H.263)\nMuxing mode: Packed bitstream\nCodec ID: XVID\nBit rate: 1 500 Kbps\nWidth: 720 pixels\nHeight: 304 pixels\nDisplay aspect ratio: 2.35\nFrame rate: 23.976 fps\nResolution: 24 bits\nColorimetry: 4:2:0\nScan type: Progressive\nBits/(Pixel*Frame): 0.286\nStream size: 1.18 GiB (77%)\n\n[color=red]Audio[/color]\nFormat: AC-3\nBit rate mode: Constant\nBit rate: 448 Kbps\nChannel(s): 6 channels\nSampling rate: 48.0 KHz\nStream size: 361 MiB (23%)\n\n[img]http://leetleech.org/images/89524873606771859129.png[/img]\nA female forensic psychiatrist discovers that all of one of her \npatient's multiple personalities are murder victims. She will have \nto find out what's happening before her time is finished.\n\n[img]http://leetleech.org/images/84434050717770922575.png[/img]\nJulianne Moore\t... \tDr. Cara Jessup\nJonathan Rhys Meyers\t... \tAdam\nJeffrey DeMunn\t... \tDr. Harding\nFrances Conroy\t... \tMrs. Birnberg\nBrooklynn Proulx\t... \tSammy\nNathan Corddry\t... \tStephen\nKatiAna Davis\t... \tThe Familiar\nMichael Graves\t... \tHoller Man\n\n[color=red]GREETZ[/color]\nNoir | xXTHORNXx | bigimac | LUSi |\n\nkempas | KaN1vE | mike160 | skillz |\n\nLungbuster | Sheikh | dillon1369 |\n\nFLAWL3SS | AND ALL P2P!\n\n[color=red]SAMPLE INCLUDED![/color][/b]\n\n[img]http://leetleech.org/images/95521316153253938506.png[/img]\n[img]http://leetleech.org/images/07790405980962700329.png[/img]\n[img]http://leetleech.org/images/71336629333610823494.png[/img]\n[img]http://leetleech.org/images/68699715664939928471.png[/img]\n[img]http://leetleech.org/images/45947498051607378654.png[/img]\n[img]http://leetleech.org/images/38283155361011016193.png[/img]\n[img]http://leetleech.org/images/60717568333773026674.png[/img]\n[img]http://leetleech.org/images/12755021538703799215.png[/img]","torrent":{"xt":"urn:btih:3585d4f211fdcf3be85ecdb16ec580e2a25bc395","amp;dn":"Shelter.LIMITED.2010.480p.BRRip.XviD.AC3-LEGi0N","amp;tr":["udp%3A%2F%2Ftracker.openbittorrent.com%3A80","udp%3A%2F%2Fopen.demonii.com%3A1337","udp%3A%2F%2Ftracker.coppersurfer.tk%3A6969","udp%3A%2F%2Fexodus.desync.com%3A6969"],"infoHash":"3585d4f211fdcf3be85ecdb16ec580e2a25bc395","infoHashBuffer":{"type":"Buffer","data":[53,133,212,242,17,253,207,59,232,94,205,177,110,197,128,226,162,91,195,149]},"announce":[],"urlList":[]}}